# This file uses centimeters as units for non-parametric coordinates.

mtllib splashscreen.mtl
g default
v -4.320169 0.154714 0.000752
v 4.320169 0.154714 0.000752
v -4.320169 4.668311 0.000752
v 4.320169 4.668311 0.000752
v -4.320169 4.668311 -0.000752
v 4.320169 4.668311 -0.000752
v -4.320169 0.154714 -0.000752
v 4.320169 0.154714 -0.000752
vt 0.618269 0.668528
vt 0.947749 0.668528
vt 0.947749 0.998008
vt 0.618269 0.998008
vt 0.620920 0.668528
vt 0.950399 0.668528
vt 0.950399 0.998008
vt 0.620920 0.998008
vt 0.629344 0.666109
vt 0.958824 0.666109
vt 0.958824 0.995589
vt 0.629344 0.995589
vt 0.622137 0.665212
vt 0.951617 0.665212
vt 0.951617 0.994692
vt 0.622137 0.994692
vt 0.015136 -0.005608
vt 1.000494 -0.005608
vt 1.000494 0.996169
vt 0.015136 0.996169
vt 1.001284 0.998292
vt 0.004700 0.998292
vt 0.004700 0.001708
vt 1.001284 0.001708
vn 0.000000 0.000000 1.000000
vn 0.000000 0.000000 1.000000
vn 0.000000 0.000000 1.000000
vn 0.000000 0.000000 1.000000
vn 0.000000 1.000000 0.000000
vn 0.000000 1.000000 0.000000
vn 0.000000 1.000000 0.000000
vn 0.000000 1.000000 0.000000
vn 0.000000 0.000000 -1.000000
vn 0.000000 0.000000 -1.000000
vn 0.000000 0.000000 -1.000000
vn 0.000000 0.000000 -1.000000
vn 0.000000 -1.000000 0.000000
vn 0.000000 -1.000000 0.000000
vn 0.000000 -1.000000 0.000000
vn 0.000000 -1.000000 0.000000
vn 1.000000 0.000000 0.000000
vn 1.000000 0.000000 0.000000
vn 1.000000 0.000000 0.000000
vn 1.000000 0.000000 0.000000
vn -1.000000 0.000000 0.000000
vn -1.000000 0.000000 0.000000
vn -1.000000 0.000000 0.000000
vn -1.000000 0.000000 0.000000
s 1
g pCube1
usemtl initialShadingGroup
f 1/17/1 2/18/2 3/20/3
f 3/20/3 2/18/2 4/19/4
s 2
f 3/9/5 4/10/6 5/12/7
f 5/12/7 4/10/6 6/11/8
s 3
f 5/21/9 6/22/10 7/24/11
f 7/24/11 6/22/10 8/23/12
s 4
f 7/13/13 8/14/14 1/16/15
f 1/16/15 8/14/14 2/15/16
s 5
f 2/1/17 8/2/18 4/4/19
f 4/4/19 8/2/18 6/3/20
s 6
f 7/5/21 1/6/22 5/8/23
f 5/8/23 1/6/22 3/7/24
